<?xml version="1.0" encoding="UTF-8"?>
<svg xmlns="http://www.w3.org/2000/svg" viewBox="0 0 300 185">
  <path d="M61.439 36.256c50.216-49.586 131.903-49.586 182.119 0l6.063 5.984c2.518 2.487 2.518 6.518 0 9.005l-20.75 20.49c-1.259 1.243-3.299 1.243-4.558 0l-8.342-8.239c-35.034-34.597-91.863-34.597-126.898 0l-8.929 8.817c-1.259 1.243-3.299 1.243-4.558 0l-20.75-20.49c-2.518-2.487-2.518-6.518 0-9.005l6.603-6.562zM232.491 85.78l18.472 18.245c2.518 2.487 2.518 6.518 0 9.005l-83.334 82.27c-2.518 2.487-6.597 2.487-9.114 0l-59.161-58.414c-.63-.622-1.649-.622-2.279 0l-59.161 58.414c-2.518 2.487-6.597 2.487-9.114 0L1.467 113.03c-2.518-2.487-2.518-6.518 0-9.005l18.472-18.245c2.518-2.487 6.597-2.487 9.114 0l59.161 58.414c.63.622 1.649.622 2.279 0l59.161-58.414c2.518-2.487 6.597-2.487 9.114 0l59.161 58.414c.63.622 1.649.622 2.279 0l59.161-58.414c2.518-2.487 6.597-2.487 9.114 0z" fill="#3396ff"/>
</svg>